<svg viewBox="0 0 57 57" xmlns="http://www.w3.org/2000/svg">
  <polygon points="31.6738135 13.9532524 41.508192 39.47612 35.3478787 39.47612 28.268225 19.3868838 24.2886897 30.3687896 30.4061493 30.3687896 32.0887986 35.1522899 22.7965013 35.1522899 21.1889375 39.47612 15.0286243 39.47612 24.8626365 13.9532524"></polygon>
  <path d="M55.4125747,20.7783477 C56.0857809,23.1884114 56.448023,25.7288676 56.448023,28.3535661 C56.448023,43.8699079 43.8695416,56.4483893 28.3535661,56.4483893 C12.8372244,56.4483893 0.259109249,43.8699079 0.259109249,28.3535661 C0.259109249,12.8372244 12.8372244,0.258742978 28.3535661,0.258742978 C35.3489775,0.258742978 41.7451693,2.81714647 46.6623586,7.04721117 C47.0300948,6.91315595 47.4267663,6.84026801 47.8402864,6.84026801 C49.736838,6.84026801 51.274444,8.37750773 51.274444,10.2740594 C51.274444,12.170611 49.736838,13.7078507 47.8402864,13.7078507 C45.944101,13.7078507 44.406495,12.170611 44.406495,10.2740594 C44.406495,9.83013883 44.4918362,9.40636319 44.6449375,9.01701703 C40.0918217,5.16750799 34.3845857,3.0687747 28.3535661,3.0687747 C21.5998937,3.0687747 15.249852,5.69823478 10.4744097,10.4744097 C5.69860105,15.2502183 3.06840843,21.5998937 3.06840843,28.3535661 C3.06840843,35.1072386 5.69823478,41.456914 10.4744097,46.2327226 C15.249852,51.0085312 21.5998937,53.6387238 28.3535661,53.6387238 C35.1072386,53.6387238 41.456914,51.0088975 46.2327226,46.2327226 C51.008165,41.456914 53.6383576,35.1072386 53.6383576,28.3535661 C53.6383576,25.9977106 53.3178704,23.6916678 52.698506,21.484152 L52.7021687,21.482687 C52.6541872,21.3413063 52.6270831,21.1904026 52.6270831,21.0325398 C52.6270831,20.2567777 53.2559706,19.6278902 54.0317327,19.6278902 C54.5979878,19.6278902 55.0847621,19.9637608 55.3070886,20.4461398 C55.3070886,20.4461398 55.3330939,20.4985166 55.3407856,20.5263532 C55.3722849,20.6072991 55.3960925,20.6911752 55.4125747,20.7783477 Z"></path>
</svg>