<svg viewBox="0 0 61 61" xmlns="http://www.w3.org/2000/svg">
  <polygon points="33.8437305 15.5 43.5 41.5 37.4512553 41.5 30.4998202 21.0352094 26.5923577 32.2224144 32.5990248 32.2224144 34.2511999 37.0953389 25.1271941 37.0953389 23.5487447 41.5 17.5 41.5 27.1559098 15.5"></polygon>
  <path d="M57.468033,22.9503487 C58.1389758,25.3522782 58.5,27.8841601 58.5,30.5 C58.5,45.9639724 45.9638089,58.5 30.5,58.5 C15.035826,58.5 2.5,45.9639724 2.5,30.5 C2.5,15.0360276 15.035826,2.5 30.5,2.5 C37.4718919,2.5 43.8465791,5.04976859 48.7472361,9.26555635 C49.1137359,9.13195359 49.5090738,9.05931165 49.9212036,9.05931165 C51.8113788,9.05931165 53.3438152,10.591363 53.3438152,12.4815136 C53.3438152,14.3716642 51.8113788,15.9037155 49.9212036,15.9037155 C48.0313934,15.9037155 46.498957,14.3716642 46.498957,12.4815136 C46.498957,12.0390913 46.5840113,11.616746 46.7365978,11.2287139 C42.1987902,7.39219738 36.5107426,5.30054755 30.5,5.30054755 C23.7690342,5.30054755 17.4403421,7.92113291 12.6809554,12.6811877 C7.92120359,17.4408774 5.29985398,23.769122 5.29985398,30.5 C5.29985398,37.230878 7.92083855,43.5591226 12.6809554,48.3188123 C17.4403421,53.0785021 23.7690342,55.6998175 30.5,55.6998175 C37.2309658,55.6998175 43.5592929,53.0788671 48.3190446,48.3188123 C53.0784314,43.5591226 55.699781,37.230878 55.699781,30.5 C55.699781,28.1520957 55.3803713,25.8538361 54.7630893,23.6537709 L54.7667397,23.6523108 C54.7189195,23.5114073 54.6919065,23.361013 54.6919065,23.2036829 C54.6919065,22.4305391 55.3186796,21.8037742 56.0918335,21.8037742 C56.6561848,21.8037742 57.1413225,22.1385112 57.3629015,22.6192621 C57.3629015,22.6192621 57.3888194,22.6714621 57.3964852,22.6992047 C57.4278786,22.7798775 57.4516062,22.8634704 57.468033,22.9503487 Z"></path>
</svg>