<svg viewBox="0 0 306 381" xmlns="http://www.w3.org/2000/svg">
  <path d="M93.9,290.8 L88.9,290.8 L81.7,309.6 L86.2,309.6 L87.4,306.4 L94.2,306.4 L93,302.9 L88.5,302.9 L91.4,294.8 L96.6,309.6 L101.1,309.6 L93.9,290.8 Z M169.9,309.5 L169.9,290.7 L173.9,290.7 L173.9,306 L181.8,306 L181.8,309.5 L169.9,309.5 Z M193.1,309.5 L193.1,290.7 L197.1,290.7 L197.1,306 L205,306 L205,309.5 L193.1,309.5 Z M147.7,294.1 C151,294.1 153.7,296.8 153.7,300.1 C153.7,303.4 151,306.1 147.7,306.1 C144.4,306.1 141.7,303.4 141.7,300.1 C141.6,296.8 144.3,294.1 147.7,294.1 Z M147.7,290.5 C142.3,290.5 138,294.8 138,300.2 C138,305.6 142.3,309.9 147.7,309.9 C153.1,309.9 157.4,305.6 157.4,300.2 C157.4,294.8 153,290.5 147.7,290.5 Z M223.5,294.1 C226.8,294.1 229.5,296.8 229.5,300.1 C229.5,303.4 226.8,306.1 223.5,306.1 C220.2,306.1 217.5,303.4 217.5,300.1 C217.5,296.8 220.2,294.1 223.5,294.1 Z M223.5,290.5 C218.1,290.5 213.8,294.8 213.8,300.2 C213.8,305.6 218.1,309.9 223.5,309.9 C228.9,309.9 233.2,305.6 233.2,300.2 C233.2,294.8 228.9,290.5 223.5,290.5 Z M121.6,290.8 L112.9,290.8 L112.9,309.6 L116.9,309.6 L116.9,303.1 L121.7,303.1 C125,303.1 127.7,300.3 127.7,296.9 C127.6,293.6 124.9,290.8 121.6,290.8 Z M121.6,299.4 L116.8,299.4 L116.8,294.4 L121.6,294.4 C122.9,294.4 124,295.6 124,296.9 C123.9,298.2 122.9,299.4 121.6,299.4 Z"></path>
  <path d="M109.4,315.2 C109.1,315.2 108.7,315.4 108.6,315.6 C108.6,315.6 107.7,316.6 107.2,317.1 C105.1,319.2 102.8,320.8 100.1,321.9 C97.3,323.1 94.4,323.7 91.4,323.7 C88.4,323.7 85.4,323.1 82.7,321.9 C80,320.8 77.6,319.2 75.6,317.1 C73.5,315 71.9,312.7 70.8,310 C69.6,307.2 69,304.3 69,301.3 C69,298.3 69.6,295.3 70.8,292.6 C71.9,289.9 73.5,287.5 75.6,285.5 C77.7,283.4 80,281.8 82.7,280.7 C85.5,279.5 88.4,278.9 91.4,278.9 C94.4,278.9 97.4,279.5 100.1,280.7 C102,281.5 103.8,282.6 105.5,283.9 C105.4,284.2 105.4,284.4 105.4,284.7 C105.4,286.1 106.5,287.2 107.9,287.2 C109.3,287.2 110.4,286.1 110.4,284.7 C110.4,283.3 109.3,282.2 107.9,282.2 C107.6,282.2 107.2,282.3 106.9,282.4 C102.7,278.9 97.3,276.9 91.4,276.9 C77.9,276.9 67,287.8 67,301.3 C67,314.8 77.9,325.7 91.4,325.7 C98.9,325.7 105.7,322.3 110.2,316.9 C110.4,316.7 110.5,316.5 110.5,316.2 C110.4,315.7 109.9,315.2 109.4,315.2 Z"></path>
  <path d="M166.570087,81.4894055 C165.195226,81.3624279 164.183617,80.1449475 164.310594,78.7700868 C164.437572,77.395226 165.655053,76.3836169 167.029913,76.5105945 C198.295395,79.3981708 227.411063,91.7304365 251.110339,111.687722 C252.166461,112.577088 252.301644,114.154217 251.412278,115.210339 C250.522912,116.266461 248.945783,116.401644 247.889661,115.512278 C224.965133,96.2074127 196.81082,84.2823395 166.570087,81.4894055 Z"></path>
  <path d="M295.381801,190.534282 C295.031497,189.198747 295.830184,187.832105 297.165718,187.481801 C298.501253,187.131497 299.867895,187.930184 300.218199,189.265718 C303.521846,201.860873 305.2,214.777572 305.2,228 C305.2,312.080712 237.080712,380.2 153,380.2 C68.9192881,380.2 0.8,312.080712 0.8,228 C0.8,149.754349 60.1324178,84.497898 137.446349,76.6129011 C138.819936,76.4728134 140.047011,77.472762 140.187099,78.8463489 C140.327187,80.2199357 139.327238,81.4470113 137.953651,81.5870989 C63.1844033,89.2125719 5.8,152.32651 5.8,228 C5.8,309.319288 71.6807119,375.2 153,375.2 C234.319288,375.2 300.2,309.319288 300.2,228 C300.2,215.207276 298.577227,202.716845 295.381801,190.534282 Z"></path>
  <path d="M156.372635,266.605792 C157.906976,263.920696 158.297318,261.312992 157.263083,259.280186 C156.887427,258.541827 157.181455,257.638739 157.919814,257.263083 C158.658173,256.887427 159.561261,257.181455 159.936917,257.919814 C161.505381,261.002657 160.964363,264.616962 158.977365,268.094208 C157.396769,270.860251 155.000119,273.265712 153.347431,273.659209 C153.113461,273.714916 152.869526,273.713546 152.636197,273.655214 C151.034532,273.254798 148.642745,270.840905 147.06281,268.098869 C145.0534,264.611465 144.494488,261.002915 146.063083,257.919814 C146.438739,257.181455 147.341827,256.887427 148.080186,257.263083 C148.818545,257.638739 149.112573,258.541827 148.736917,259.280186 C147.706601,261.30529 148.109462,263.906314 149.66219,266.601131 C150.694264,268.392333 152.203037,270.026065 153.011709,270.566792 C153.836864,270.033042 155.341726,268.409882 156.372635,266.605792 Z"></path>
  <path d="M128.90211,265.810953 C129.427214,265.28301 129.952831,264.593006 130.371523,263.857742 C131.350326,262.138869 131.592538,260.507641 130.965274,259.284475 C130.587249,258.547326 130.878376,257.643299 131.615525,257.265274 C132.352674,256.887249 133.256701,257.178376 133.634726,257.915525 C135.757729,262.055381 131.980716,268.688185 128.814294,269.366704 C128.573828,269.418232 128.324381,269.409847 128.087918,269.342286 C124.930805,268.440254 121.255149,262.030268 123.365274,257.915525 C123.743299,257.178376 124.647326,256.887249 125.384475,257.265274 C126.121624,257.643299 126.412751,258.547326 126.034726,259.284475 C125.408348,260.505912 125.648548,262.111327 126.626243,263.816333 C127.19412,264.806654 127.996125,265.727282 128.505933,266.176407 C128.629415,266.073547 128.763259,265.950554 128.90211,265.810953 Z"></path>
  <path d="M179.473757,263.816333 C180.451452,262.111327 180.691652,260.505912 180.065274,259.284475 C179.687249,258.547326 179.978376,257.643299 180.715525,257.265274 C181.452674,256.887249 182.356701,257.178376 182.734726,257.915525 C184.844851,262.030268 181.169195,268.440254 178.012082,269.342286 C177.775619,269.409847 177.526172,269.418232 177.285706,269.366704 C174.119284,268.688185 170.342271,262.055381 172.465274,257.915525 C172.843299,257.178376 173.747326,256.887249 174.484475,257.265274 C175.221624,257.643299 175.512751,258.547326 175.134726,259.284475 C174.507462,260.507641 174.749674,262.138869 175.728477,263.857742 C176.147169,264.593006 176.672786,265.28301 177.19789,265.810953 C177.336741,265.950554 177.470585,266.073547 177.594067,266.176407 C178.103875,265.727282 178.90588,264.806654 179.473757,263.816333 Z"></path>
  <path d="M151.5,2.3 C151.5,1.47157288 152.171573,0.8 153,0.8 C153.828427,0.8 154.5,1.47157288 154.5,2.3 L154.5,12.3 C154.5,13.1284271 153.828427,13.8 153,13.8 C152.171573,13.8 151.5,13.1284271 151.5,12.3 L151.5,2.3 Z"></path>
  <path d="M145.7,37.8 C145.7,39.1807119 144.580712,40.3 143.2,40.3 C141.819288,40.3 140.7,39.1807119 140.7,37.8 L140.7,20.8 C140.7,19.4192881 141.819288,18.3 143.2,18.3 C144.580712,18.3 145.7,19.4192881 145.7,20.8 L145.7,37.8 Z"></path>
  <path d="M162.9,36.3 C163.728427,36.3 164.4,36.9715729 164.4,37.8 C164.4,38.6284271 163.728427,39.3 162.9,39.3 L143.2,39.3 C142.371573,39.3 141.7,38.6284271 141.7,37.8 C141.7,36.9715729 142.371573,36.3 143.2,36.3 L162.9,36.3 Z"></path>
  <path d="M160.4,20.8 C160.4,19.4192881 161.519288,18.3 162.9,18.3 C164.280712,18.3 165.4,19.4192881 165.4,20.8 L165.4,37.8 C165.4,39.1807119 164.280712,40.3 162.9,40.3 C161.519288,40.3 160.4,39.1807119 160.4,37.8 L160.4,20.8 Z"></path>
  <path d="M132.341644,124.906812 C131.730369,126.144838 130.231214,126.652919 128.993188,126.041644 C127.755162,125.430369 127.247081,123.931214 127.858356,122.693188 L135.758356,106.693188 C136.179585,105.840067 137.048554,105.3 138,105.3 L168.1,105.3 C169.051446,105.3 169.920415,105.840067 170.341644,106.693188 L178.241644,122.693188 C178.852919,123.931214 178.344838,125.430369 177.106812,126.041644 C175.868786,126.652919 174.369631,126.144838 173.758356,124.906812 L166.546243,110.3 L139.553757,110.3 L132.341644,124.906812 Z"></path>
  <path d="M132.6,135.8 C132.6,137.180712 131.480712,138.3 130.1,138.3 C128.719288,138.3 127.6,137.180712 127.6,135.8 L127.6,123.8 C127.6,122.419288 128.719288,121.3 130.1,121.3 C131.480712,121.3 132.6,122.419288 132.6,123.8 L132.6,135.8 Z"></path>
  <path d="M176,134.3 C176.828427,134.3 177.5,134.971573 177.5,135.8 C177.5,136.628427 176.828427,137.3 176,137.3 L130.1,137.3 C129.271573,137.3 128.6,136.628427 128.6,135.8 C128.6,134.971573 129.271573,134.3 130.1,134.3 L176,134.3 Z"></path>
  <path d="M173.5,123.8 C173.5,122.419288 174.619288,121.3 176,121.3 C177.380712,121.3 178.5,122.419288 178.5,123.8 L178.5,135.8 C178.5,137.180712 177.380712,138.3 176,138.3 C174.619288,138.3 173.5,137.180712 173.5,135.8 L173.5,123.8 Z"></path>
  <path d="M173.5,135.8 C173.5,134.419288 174.619288,133.3 176,133.3 C177.380712,133.3 178.5,134.419288 178.5,135.8 L178.5,209.2 C178.5,210.580712 177.380712,211.7 176,211.7 C174.619288,211.7 173.5,210.580712 173.5,209.2 L173.5,135.8 Z"></path>
  <path d="M132.6,208 C132.6,209.380712 131.480712,210.5 130.1,210.5 C128.719288,210.5 127.6,209.380712 127.6,208 L127.6,135.8 C127.6,134.419288 128.719288,133.3 130.1,133.3 C131.480712,133.3 132.6,134.419288 132.6,135.8 L132.6,208 Z"></path>
  <path d="M160.411511,38.0396323 C160.279166,36.6652779 161.286013,35.4438565 162.660368,35.3115112 C164.034722,35.179166 165.256144,36.1860133 165.388489,37.5603677 L169.288489,78.0603677 C169.420834,79.4347221 168.413987,80.6561435 167.039632,80.7884888 C165.665278,80.920834 164.443856,79.9139867 164.311511,78.5396323 L160.411511,38.0396323 Z"></path>
  <path d="M141.788489,78.5396323 C141.656144,79.9139867 140.434722,80.920834 139.060368,80.7884888 C137.686013,80.6561435 136.679166,79.4347221 136.811511,78.0603677 L140.711511,37.5603677 C140.843856,36.1860133 142.065278,35.179166 143.439632,35.3115112 C144.813987,35.4438565 145.820834,36.6652779 145.688489,38.0396323 L141.788489,78.5396323 Z"></path>
  <path d="M164.302424,78.4100627 C164.241638,77.0306895 165.310564,75.8632099 166.689937,75.8024239 C168.06931,75.741638 169.23679,76.8105642 169.297576,78.1899373 L170.597576,107.689937 C170.660264,109.112463 169.523907,110.3 168.1,110.3 L138,110.3 C136.576093,110.3 135.439736,109.112463 135.502424,107.689937 L136.802424,78.1899373 C136.86321,76.8105642 138.03069,75.741638 139.410063,75.8024239 C140.789436,75.8632099 141.858362,77.0306895 141.797576,78.4100627 L140.612596,105.3 L165.487404,105.3 L164.302424,78.4100627 Z"></path>
  <path d="M144.766897,22.7480336 C143.691027,23.6134067 142.117339,23.4427659 141.251966,22.3668966 C140.386593,21.2910273 140.557234,19.7173395 141.633103,18.8519664 L150.833103,11.4519664 C151.277214,11.0947468 151.830052,10.9 152.4,10.9 L153.7,10.9 C154.269948,10.9 154.822786,11.0947468 155.266897,11.4519664 L164.466897,18.8519664 C165.542766,19.7173395 165.713407,21.2910273 164.848034,22.3668966 C163.982661,23.4427659 162.408973,23.6134067 161.333103,22.7480336 L153.05,16.0855374 L144.766897,22.7480336 Z"></path>
  <path d="M130.1,182.7 C129.271573,182.7 128.6,182.028427 128.6,181.2 C128.6,180.371573 129.271573,179.7 130.1,179.7 L176,179.7 C176.828427,179.7 177.5,180.371573 177.5,181.2 C177.5,182.028427 176.828427,182.7 176,182.7 L130.1,182.7 Z"></path>
  <path d="M137.172931,233.8 L130.1,215.225293 L123.027069,233.8 L137.172931,233.8 Z M117.063649,235.410357 L127.763649,207.310357 C128.581244,205.163214 131.618756,205.163214 132.436351,207.310357 L143.136351,235.410357 C143.759418,237.046637 142.550892,238.8 140.8,238.8 L119.4,238.8 C117.649108,238.8 116.440582,237.046637 117.063649,235.410357 Z"></path>
  <path d="M183.072931,233.8 L176,215.225293 L168.927069,233.8 L183.072931,233.8 Z M162.963649,235.410357 L173.663649,207.310357 C174.481244,205.163214 177.518756,205.163214 178.336351,207.310357 L189.036351,235.410357 C189.659418,237.046637 188.450892,238.8 186.7,238.8 L165.3,238.8 C163.549108,238.8 162.340582,237.046637 162.963649,235.410357 Z"></path>
  <path d="M160.072931,233.8 L153.010975,215.254116 L146.015019,233.8 L160.072931,233.8 Z M140.060892,235.417632 L150.660892,207.317632 C151.473153,205.164374 154.517394,205.159638 155.336351,207.310357 L166.036351,235.410357 C166.659418,237.046637 165.450892,238.8 163.7,238.8 L142.4,238.8 C140.652415,238.8 139.444087,237.052748 140.060892,235.417632 Z"></path>
  <path d="M125.489394,216.979001 C126.710474,216.322144 128.092638,217.531614 127.603604,218.829051 L122.703604,231.829051 C122.483399,232.41327 121.924342,232.8 121.3,232.8 L111.7,232.8 C110.871573,232.8 110.2,232.128427 110.2,231.3 L110.2,226.1 C110.2,225.547955 110.503226,225.040525 110.989394,224.779001 L125.489394,216.979001 Z M113.2,226.99636 L113.2,229.8 L120.262369,229.8 L123.384024,221.518057 L113.2,226.99636 Z"></path>
  <path d="M185.737631,229.8 L192.8,229.8 L192.8,226.99636 L182.615976,221.518057 L185.737631,229.8 Z M180.510606,216.979001 L195.010606,224.779001 C195.496774,225.040525 195.8,225.547955 195.8,226.1 L195.8,231.3 C195.8,232.128427 195.128427,232.8 194.3,232.8 L184.7,232.8 C184.075658,232.8 183.516601,232.41327 183.296396,231.829051 L178.396396,218.829051 C177.907362,217.531614 179.289526,216.322144 180.510606,216.979001 Z"></path>
  <path d="M143.1,235.7 C143.1,236.528427 142.428427,237.2 141.6,237.2 C140.771573,237.2 140.1,236.528427 140.1,235.7 L140.1,181.2 C140.1,180.371573 140.771573,179.7 141.6,179.7 C142.428427,179.7 143.1,180.371573 143.1,181.2 L143.1,235.7 Z"></path>
  <path d="M166,235.7 C166,236.528427 165.328427,237.2 164.5,237.2 C163.671573,237.2 163,236.528427 163,235.7 L163,181.2 C163,180.371573 163.671573,179.7 164.5,179.7 C165.328427,179.7 166,180.371573 166,181.2 L166,235.7 Z"></path>
  <path d="M122.9,237.8 C122.071573,237.8 121.4,237.128427 121.4,236.3 C121.4,235.471573 122.071573,234.8 122.9,234.8 L183.2,234.8 C184.028427,234.8 184.7,235.471573 184.7,236.3 C184.7,237.128427 184.028427,237.8 183.2,237.8 L122.9,237.8 Z"></path>
  <path d="M129.902938,237.503904 C129.403726,236.842785 129.534977,235.90215 130.196096,235.402938 C130.857215,234.903726 131.79785,235.034977 132.297062,235.696096 C136.202723,240.868458 138.657871,246.510075 139.582847,252.573803 C139.721363,253.481856 139.018557,254.3 138.1,254.3 L119,254.3 C118.079887,254.3 117.376652,253.479225 117.517739,252.569994 C118.451515,246.552326 120.935685,240.817593 124.802938,235.696096 C125.30215,235.034977 126.242785,234.903726 126.903904,235.402938 C127.565023,235.90215 127.696274,236.842785 127.197062,237.503904 C123.998464,241.739886 121.832639,246.409197 120.799089,251.3 L136.306164,251.3 C135.28445,246.391348 133.138721,241.78913 129.902938,237.503904 Z"></path>
  <path d="M154.402938,237.503904 C153.903726,236.842785 154.034977,235.90215 154.696096,235.402938 C155.357215,234.903726 156.29785,235.034977 156.797062,235.696096 C160.702723,240.868458 163.157871,246.510075 164.082847,252.573803 C164.221363,253.481856 163.518557,254.3 162.6,254.3 L143.5,254.3 C142.579887,254.3 141.876652,253.479225 142.017739,252.569994 C142.951515,246.552326 145.435685,240.817593 149.302938,235.696096 C149.80215,235.034977 150.742785,234.903726 151.403904,235.402938 C152.065023,235.90215 152.196274,236.842785 151.697062,237.503904 C148.498464,241.739886 146.332639,246.409197 145.299089,251.3 L160.806164,251.3 C159.78445,246.391348 157.638721,241.78913 154.402938,237.503904 Z"></path>
  <path d="M178.902938,237.503904 C178.403726,236.842785 178.534977,235.90215 179.196096,235.402938 C179.857215,234.903726 180.79785,235.034977 181.297062,235.696096 C185.202723,240.868458 187.657871,246.510075 188.582847,252.573803 C188.721363,253.481856 188.018557,254.3 187.1,254.3 L168,254.3 C167.079887,254.3 166.376652,253.479225 166.517739,252.569994 C167.451515,246.552326 169.935685,240.817593 173.802938,235.696096 C174.30215,235.034977 175.242785,234.903726 175.903904,235.402938 C176.565023,235.90215 176.696274,236.842785 176.197062,237.503904 C172.998464,241.739886 170.832639,246.409197 169.799089,251.3 L185.306164,251.3 C184.28445,246.391348 182.138721,241.78913 178.902938,237.503904 Z"></path>
  <path d="M259.4,138.4 C251.336643,138.4 244.8,131.863357 244.8,123.8 C244.8,115.736643 251.336643,109.2 259.4,109.2 C267.463357,109.2 274,115.736643 274,123.8 C274,131.863357 267.463357,138.4 259.4,138.4 Z M259.4,133.4 C264.701934,133.4 269,129.101934 269,123.8 C269,118.498066 264.701934,114.2 259.4,114.2 C254.098066,114.2 249.8,118.498066 249.8,123.8 C249.8,129.101934 254.098066,133.4 259.4,133.4 Z" id="Oval"></path>
  <path d="M99.6,128.8 C99.6,127.971573 100.271573,127.3 101.1,127.3 C101.928427,127.3 102.6,127.971573 102.6,128.8 L102.6,137.1 C102.6,137.928427 101.928427,138.6 101.1,138.6 C100.271573,138.6 99.6,137.928427 99.6,137.1 L99.6,128.8 Z"></path>
  <path d="M96.9,134.5 C96.0715729,134.5 95.4,133.828427 95.4,133 C95.4,132.171573 96.0715729,131.5 96.9,131.5 L105.3,131.5 C106.128427,131.5 106.8,132.171573 106.8,133 C106.8,133.828427 106.128427,134.5 105.3,134.5 L96.9,134.5 Z"></path>
  <path d="M225.8,196 C225.8,195.171573 226.471573,194.5 227.3,194.5 C228.128427,194.5 228.8,195.171573 228.8,196 L228.8,205.3 C228.8,206.128427 228.128427,206.8 227.3,206.8 C226.471573,206.8 225.8,206.128427 225.8,205.3 L225.8,196 Z"></path>
  <path d="M222.6,202.2 C221.771573,202.2 221.1,201.528427 221.1,200.7 C221.1,199.871573 221.771573,199.2 222.6,199.2 L231.9,199.2 C232.728427,199.2 233.4,199.871573 233.4,200.7 C233.4,201.528427 232.728427,202.2 231.9,202.2 L222.6,202.2 Z"></path>
  <path d="M54.9,197.6 C54.9,196.771573 55.5715729,196.1 56.4,196.1 C57.2284271,196.1 57.9,196.771573 57.9,197.6 L57.9,203.7 C57.9,204.528427 57.2284271,205.2 56.4,205.2 C55.5715729,205.2 54.9,204.528427 54.9,203.7 L54.9,197.6 Z"></path>
  <path d="M53.4,202.2 C52.5715729,202.2 51.9,201.528427 51.9,200.7 C51.9,199.871573 52.5715729,199.2 53.4,199.2 L59.4,199.2 C60.2284271,199.2 60.9,199.871573 60.9,200.7 C60.9,201.528427 60.2284271,202.2 59.4,202.2 L53.4,202.2 Z"></path>
  <path d="M157.8,325.7 C157.8,324.871573 158.471573,324.2 159.3,324.2 C160.128427,324.2 160.8,324.871573 160.8,325.7 L160.8,331.8 C160.8,332.628427 160.128427,333.3 159.3,333.3 C158.471573,333.3 157.8,332.628427 157.8,331.8 L157.8,325.7 Z"></path>
  <path d="M156.3,330.3 C155.471573,330.3 154.8,329.628427 154.8,328.8 C154.8,327.971573 155.471573,327.3 156.3,327.3 L162.3,327.3 C163.128427,327.3 163.8,327.971573 163.8,328.8 C163.8,329.628427 163.128427,330.3 162.3,330.3 L156.3,330.3 Z"></path>
  <path d="M176,122.3 C176.828427,122.3 177.5,122.971573 177.5,123.8 C177.5,124.628427 176.828427,125.3 176,125.3 L130.1,125.3 C129.271573,125.3 128.6,124.628427 128.6,123.8 C128.6,122.971573 129.271573,122.3 130.1,122.3 L176,122.3 Z"></path>
  <path d="M260.1,222.2 C260.1,220.788091 258.931711,219.6 257.5,219.6 C256.028427,219.6 254.9,220.728427 254.9,222.2 C254.9,223.671573 256.028427,224.8 257.5,224.8 C258.971573,224.8 260.1,223.671573 260.1,222.2 Z M263.1,222.2 C263.1,225.328427 260.628427,227.8 257.5,227.8 C254.371573,227.8 251.9,225.328427 251.9,222.2 C251.9,219.071573 254.371573,216.6 257.5,216.6 C260.599956,216.6 263.1,219.142418 263.1,222.2 Z"></path>
  <path d="M129.2,343 C129.2,341.299074 127.856533,339.934938 126.2,340 C124.528427,340 123.2,341.328427 123.2,343 C123.2,344.671573 124.528427,346 126.2,346 C127.871573,346 129.2,344.671573 129.2,343 Z M132.2,343 C132.2,346.328427 129.528427,349 126.2,349 C122.871573,349 120.2,346.328427 120.2,343 C120.2,339.671573 122.871573,337 126.140048,337.001199 C129.47787,336.867686 132.2,339.631695 132.2,343 Z"></path>
  <path d="M205.1,133 C205.1,131.299074 203.756533,129.934938 202.1,130 C200.428427,130 199.1,131.328427 199.1,133 C199.1,134.671573 200.428427,136 202.1,136 C203.771573,136 205.1,134.671573 205.1,133 Z M208.1,133 C208.1,136.328427 205.428427,139 202.1,139 C198.771573,139 196.1,136.328427 196.1,133 C196.1,129.671573 198.771573,127 202.040048,127.001199 C205.37787,126.867686 208.1,129.631695 208.1,133 Z"></path>
  <circle cx="88.6" cy="169.5" r="2.5"></circle>
  <circle cx="194.3" cy="338.5" r="2.5"></circle>
  <path d="M255.9,259.6 C255.9,261 254.8,262.1 253.4,262.1 C252,262.1 250.9,261 250.9,259.6 C250.9,258.2 252,257.1 253.4,257.1 C254.8,257.1 255.9,258.2 255.9,259.6 Z"></path>
  <circle cx="209.5" cy="169.5" r="2.5"></circle>
  <circle cx="91.1" cy="208" r="2.5"></circle>
  <circle cx="217.5" cy="241" r="2.5"></circle>
  <circle cx="56.4" cy="241" r="2.5"></circle>
</svg>