<svg viewBox="0 0 60 60" xmlns="http://www.w3.org/2000/svg">
  <path d="M27.0383,17.5838 C26.3565045,17.5838 25.8038,17.0310955 25.8038,16.3493 C25.8038,15.6675045 26.3565045,15.1148 27.0383,15.1148 L38.5193,15.1148 C39.2010955,15.1148 39.7538,15.6675045 39.7538,16.3493 L39.7538,20.1063 C39.7538,20.7880955 39.2010955,21.3408 38.5193,21.3408 C37.8375045,21.3408 37.2848,20.7880955 37.2848,20.1063 L37.2848,17.5838 L27.0383,17.5838 Z"></path>
  <path d="M37.2847,42.6486 C37.2847,41.9668045 37.8374045,41.4141 38.5192,41.4141 C39.2009955,41.4141 39.7537,41.9668045 39.7537,42.6486 L39.7537,44.9026 C39.7537,45.5843955 39.2009955,46.1371 38.5192,46.1371 L27.0382,46.1371 C26.3564045,46.1371 25.8037,45.5843955 25.8037,44.9026 C25.8037,44.2208045 26.3564045,43.6681 27.0382,43.6681 L37.2847,43.6681 L37.2847,42.6486 Z"></path>
  <path d="M13.8425561,46.1053866 C13.2834632,45.9753097 12.8878,45.4770252 12.8878,44.903 L12.8878,16.349 C12.8878,15.7749748 13.2834632,15.2766903 13.8425561,15.1466134 L26.7585561,12.1416134 C27.5326784,11.9615083 28.2728,12.5492025 28.2728,13.344 L28.2728,47.908 C28.2728,48.7027975 27.5326784,49.2904917 26.7585561,49.1103866 L13.8425561,46.1053866 Z M15.3568,43.9227442 L25.8038,46.3533137 L25.8038,14.8986863 L15.3568,17.3292558 L15.3568,43.9227442 Z"></path>
  <path d="M22.9337,31.3776 C22.9337,30.8021517 22.5095169,30.3581 22.0152,30.3581 C21.5214447,30.3581 21.0967,30.8025971 21.0967,31.3776 C21.0967,31.9526029 21.5214447,32.3971 22.0152,32.3971 C22.5095169,32.3971 22.9337,31.9530483 22.9337,31.3776 Z M25.4027,31.3776 C25.4027,33.2919981 23.8990298,34.8661 22.0152,34.8661 C20.1321177,34.8661 18.6277,33.2917206 18.6277,31.3776 C18.6277,29.4634794 20.1321177,27.8891 22.0152,27.8891 C23.8990298,27.8891 25.4027,29.4632019 25.4027,31.3776 Z"></path>
  <path d="M47.1301,30.1553 C47.8118955,30.1553 48.3646,30.7080045 48.3646,31.3898 C48.3646,32.0715955 47.8118955,32.6243 47.1301,32.6243 L30.6261,32.6243 C29.9443045,32.6243 29.3916,32.0715955 29.3916,31.3898 C29.3916,30.7080045 29.9443045,30.1553 30.6261,30.1553 L47.1301,30.1553 Z"></path>
  <path d="M37.259643,36.5357569 C37.7305448,37.0288053 37.7125914,37.8102412 37.2195431,38.281143 C36.7264947,38.7520448 35.9450588,38.7340914 35.474157,38.2410431 L29.733157,32.2300431 C29.277481,31.7529366 29.277481,31.0018634 29.733157,30.5247569 L35.474157,24.5137569 C35.9450588,24.0207086 36.7264947,24.0027552 37.2195431,24.473657 C37.7125914,24.9445588 37.7305448,25.7259947 37.259643,26.2190431 L32.3329873,31.3774 L37.259643,36.5357569 Z"></path>
  <path d="M30.62,60.245 C14.2585643,60.245 0.995,46.9814357 0.995,30.62 C0.995,14.2585643 14.2585643,0.995 30.62,0.995 C46.9814357,0.995 60.245,14.2585643 60.245,30.62 C60.245,46.9814357 46.9814357,60.245 30.62,60.245 Z M30.62,57.775 C45.6172924,57.775 57.775,45.6172924 57.775,30.62 C57.775,15.6227076 45.6172924,3.465 30.62,3.465 C15.6227076,3.465 3.465,15.6227076 3.465,30.62 C3.465,45.6172924 15.6227076,57.775 30.62,57.775 Z"></path>
</svg>