<svg viewBox="0 0 60 60" xmlns="http://www.w3.org/2000/svg">
  <path d="M30.62,60.245 C14.2585643,60.245 0.995,46.9814357 0.995,30.62 C0.995,14.2585643 14.2585643,0.995 30.62,0.995 C46.9814357,0.995 60.245,14.2585643 60.245,30.62 C60.245,46.9814357 46.9814357,60.245 30.62,60.245 Z M30.62,57.775 C45.6172924,57.775 57.775,45.6172924 57.775,30.62 C57.775,15.6227076 45.6172924,3.465 30.62,3.465 C15.6227076,3.465 3.465,15.6227076 3.465,30.62 C3.465,45.6172924 15.6227076,57.775 30.62,57.775 Z"></path>
  <path d="M43.9015175,21.3041167 C43.7315872,22.6672136 42.5741135,23.6879 41.2025,23.6879 L15.7685,23.6879 C15.097405,23.6879 14.6186797,24.3408298 14.8187858,24.9791163 L17.1413662,32.4099786 C17.2704421,32.8252469 17.6536288,33.1069 18.0895,33.1069 L39.5425,33.1069 C41.1611721,33.1069 42.2493751,34.3417531 42.249625,35.8266922 C42.2498749,37.3119094 41.1616893,38.5469 39.5425,38.5469 L18.7395,38.5469 C18.0577045,38.5469 17.505,37.9941955 17.505,37.3124 C17.505,36.6306045 18.0577045,36.0779 18.7395,36.0779 L39.5425,36.0779 C39.7236024,36.0779 39.7806563,36.013149 39.780625,35.8271078 C39.7805937,35.6409304 39.7232863,35.5759 39.5425,35.5759 L18.0895,35.5759 C16.5732019,35.5759 15.2339155,34.5914864 14.7842142,33.1446837 L12.4625323,25.7166999 C11.7644838,23.4901121 13.4297267,21.2189 15.7685,21.2189 L41.2025,21.2189 C41.3293742,21.2189 41.4357201,21.1251218 41.4515424,20.9982035 L41.9506851,17.0070668 C42.0753923,16.0173695 42.9158308,15.2759 43.9125,15.2759 L47.7145,15.2759 C48.3962955,15.2759 48.949,15.8286045 48.949,16.5104 C48.949,17.1921955 48.3962955,17.7449 47.7145,17.7449 L44.3466427,17.7449 L43.9015175,21.3041167 Z"></path>
  <path d="M40.5442505,25.2891723 C40.6195422,24.6115468 41.2299022,24.1232588 41.9075277,24.1985505 C42.5851532,24.2738422 43.0734412,24.8842022 42.9981495,25.5618277 L42.2551495,32.2488277 C42.1798578,32.9264532 41.5694978,33.4147412 40.8918723,33.3394495 C40.2142468,33.2641578 39.7259588,32.6537978 39.8012505,31.9761723 L40.5442505,25.2891723 Z"></path>
  <path d="M22.7061,42.5133 C22.7061,41.9650955 22.2598045,41.5188 21.7116,41.5188 C21.1633955,41.5188 20.7171,41.9650955 20.7171,42.5133 C20.7171,43.0609353 21.1638263,43.5078 21.7116,43.5078 C22.2593737,43.5078 22.7061,43.0609353 22.7061,42.5133 Z M25.1751,42.5133 C25.1751,44.4243552 23.623136,45.9768 21.7116,45.9768 C19.800064,45.9768 18.2481,44.4243552 18.2481,42.5133 C18.2481,40.6015045 19.7998045,39.0498 21.7116,39.0498 C23.6233955,39.0498 25.1751,40.6015045 25.1751,42.5133 Z"></path>
  <path d="M39.0508,42.5133 C39.0508,41.9650955 38.6045045,41.5188 38.0563,41.5188 C37.5080955,41.5188 37.0618,41.9650955 37.0618,42.5133 C37.0618,43.0609353 37.5085263,43.5078 38.0563,43.5078 C38.6040737,43.5078 39.0508,43.0609353 39.0508,42.5133 Z M41.5198,42.5133 C41.5198,44.4243552 39.967836,45.9768 38.0563,45.9768 C36.144764,45.9768 34.5928,44.4243552 34.5928,42.5133 C34.5928,40.6015045 36.1445045,39.0498 38.0563,39.0498 C39.9680955,39.0498 41.5198,40.6015045 41.5198,42.5133 Z"></path>
</svg>