<svg viewBox="0 0 60 60" xmlns="http://www.w3.org/2000/svg">
  <path d="M28.0325,46.3444 C28.0325,47.0261955 27.4797955,47.5789 26.798,47.5789 L17.611,47.5789 C16.9292045,47.5789 16.3765,47.0261955 16.3765,46.3444 L16.3765,31.0324 C16.3765,30.3506045 16.9292045,29.7979 17.611,29.7979 C18.2927955,29.7979 18.8455,30.3506045 18.8455,31.0324 L18.8455,45.1099 L25.5635,45.1099 L25.5635,35.6264 C25.5635,34.9446045 26.1162045,34.3919 26.798,34.3919 L34.454,34.3919 C35.1357955,34.3919 35.6885,34.9446045 35.6885,35.6264 L35.6885,45.1099 L42.4065,45.1099 L42.4065,31.7984 C42.4065,31.1166045 42.9592045,30.5639 43.641,30.5639 C44.3227955,30.5639 44.8755,31.1166045 44.8755,31.7984 L44.8755,46.3444 C44.8755,47.0261955 44.3227955,47.5789 43.641,47.5789 L34.454,47.5789 C33.7722045,47.5789 33.2195,47.0261955 33.2195,46.3444 L33.2195,36.8609 L28.0325,36.8609 L28.0325,46.3444 Z"></path>
  <path d="M13.8902233,31.1397233 C13.4081211,31.6218256 12.6264789,31.6218256 12.1443767,31.1397233 C11.6622744,30.6576211 11.6622744,29.8759789 12.1443767,29.3938767 L29.7533767,11.7848767 C30.2354789,11.3027744 31.0171211,11.3027744 31.4992233,11.7848767 L49.1082233,29.3938767 C49.5903256,29.8759789 49.5903256,30.6576211 49.1082233,31.1397233 C48.6261211,31.6218256 47.8444789,31.6218256 47.3623767,31.1397233 L30.6263,14.4036466 L13.8902233,31.1397233 Z"></path>
  <path d="M36.7512,15.4236 C36.0694045,15.4236 35.5167,14.8708955 35.5167,14.1891 C35.5167,13.5073045 36.0694045,12.9546 36.7512,12.9546 L42.1102,12.9546 C42.7919955,12.9546 43.3447,13.5073045 43.3447,14.1891 L43.3447,19.5481 C43.3447,20.2298955 42.7919955,20.7826 42.1102,20.7826 C41.4284045,20.7826 40.8757,20.2298955 40.8757,19.5481 L40.8757,15.4236 L36.7512,15.4236 Z"></path>
  <path d="M30.62,60.245 C14.2585643,60.245 0.995,46.9814357 0.995,30.62 C0.995,14.2585643 14.2585643,0.995 30.62,0.995 C46.9814357,0.995 60.245,14.2585643 60.245,30.62 C60.245,46.9814357 46.9814357,60.245 30.62,60.245 Z M30.62,57.775 C45.6172924,57.775 57.775,45.6172924 57.775,30.62 C57.775,15.6227076 45.6172924,3.465 30.62,3.465 C15.6227076,3.465 3.465,15.6227076 3.465,30.62 C3.465,45.6172924 15.6227076,57.775 30.62,57.775 Z"></path>
</svg>